# xmcd CD database file
#
# Track frame offsets:
#	150
#	10045
#	21282
#	35265
#	49002
#	58747
#	71735
#	89577
#	100417
#	110857
#	124217
#	136482
#	153762
#	166440
#	177035
#	193407
#	207557
#	222292
#	233930
#	246562
#	260362
#	270072
#	276595
#	294840
#
# Disc length: 4084 seconds
#
# Revision: 7
# Processed by: cddbd v1.5.2PL0 Copyright (c) Steve Scherf et al.
# Submitted via: CDex 1.51
#
DISCID=6f0ff218
DTITLE=Various Artist - Blues Anytime I
DYEAR=1992
DGENRE=Blues
TTITLE0=I'm Your Witchdoctor - John Mayall and The Bluesbreakers
TTITLE1=Snake Drive - Eric Clapton
TTITLE2=Ain't Gonna Cry No More - T.S. McPhee
TTITLE3=I Tried - Savoy Brown Blues Band
TTITLE4=Tribute To Elmore - Eric Clapton
TTITLE5=I Feel So Good - Jo Ann Kelly
TTITLE6=Telephone Blues - John Mayall and The Bluesbreakers
TTITLE7=You Don't Love Me - T.S. McPhee
TTITLE8=West Coast Idea - Eric Clapton
TTITLE9=Ain't Seen No Whisky - Jo Ann Kelly
TTITLE10=Flapjacks - Stone's Masonry
TTITLE11=Cold Blooded - Savoy Brown Blues Band
TTITLE12=On Top Of The World - John Mayall and The Bluesbreakers
TTITLE13=Someone To Love Me - T.S. McPhee
TTITLE14=Can't Quit You Baby - Savoy Brown Blues Band
TTITLE15=Draggin' My Tail - Eric Clapton and Jimmy Page
TTITLE16=Dealing With The Devil - Dharma Blues Band
TTITLE17=Who's Knocking - Jeremy Spencer
TTITLE18=Frieght Loader - Eric Clapton and Jimmy Page
TTITLE19=Look Down At My Woman - Jeremy Spencer
TTITLE20=Roll'em Pete - Dharma Blues Band
TTITLE21=Choker - Eric Clapton and Jimmy Page
TTITLE22=True Blue - Savoy Brown Blues Band
TTITLE23=When You Got A Good Friend - T.S. McPhee
EXTD=YEAR: 1992
EXTT0=
EXTT1=
EXTT2=
EXTT3=
EXTT4=
EXTT5=
EXTT6=
EXTT7=
EXTT8=
EXTT9=
EXTT10=
EXTT11=
EXTT12=
EXTT13=
EXTT14=
EXTT15=
EXTT16=
EXTT17=
EXTT18=
EXTT19=
EXTT20=
EXTT21=
EXTT22=
EXTT23=
PLAYORDER=
